<svg width="33" height="32" viewBox="0 0 33 32" fill="none" xmlns="http://www.w3.org/2000/svg">
<path d="M16.1868 6.16094C19.393 6.16094 19.7727 6.175 21.0336 6.23125C22.2055 6.28281 22.8383 6.47969 23.2602 6.64375C23.818 6.85938 24.2211 7.12188 24.6383 7.53906C25.0602 7.96094 25.318 8.35938 25.5336 8.91719C25.6977 9.33906 25.8946 9.97656 25.9461 11.1437C26.0024 12.4094 26.0165 12.7891 26.0165 15.9906C26.0165 19.1969 26.0024 19.5766 25.9461 20.8375C25.8946 22.0094 25.6977 22.6422 25.5336 23.0641C25.318 23.6219 25.0555 24.025 24.6383 24.4422C24.2165 24.8641 23.818 25.1219 23.2602 25.3375C22.8383 25.5016 22.2008 25.6984 21.0336 25.75C19.768 25.8063 19.3883 25.8203 16.1868 25.8203C12.9805 25.8203 12.6008 25.8063 11.3399 25.75C10.168 25.6984 9.53521 25.5016 9.11333 25.3375C8.55552 25.1219 8.15239 24.8594 7.73521 24.4422C7.31333 24.0203 7.05552 23.6219 6.83989 23.0641C6.67583 22.6422 6.47896 22.0047 6.42739 20.8375C6.37114 19.5719 6.35708 19.1922 6.35708 15.9906C6.35708 12.7844 6.37114 12.4047 6.42739 11.1437C6.47896 9.97187 6.67583 9.33906 6.83989 8.91719C7.05552 8.35938 7.31802 7.95625 7.73521 7.53906C8.15708 7.11719 8.55552 6.85938 9.11333 6.64375C9.53521 6.47969 10.1727 6.28281 11.3399 6.23125C12.6008 6.175 12.9805 6.16094 16.1868 6.16094ZM16.1868 4C12.929 4 12.5211 4.01406 11.2415 4.07031C9.96646 4.12656 9.08989 4.33281 8.33052 4.62812C7.53833 4.9375 6.86802 5.34531 6.20239 6.01562C5.53208 6.68125 5.12427 7.35156 4.81489 8.13906C4.51958 8.90313 4.31333 9.775 4.25708 11.05C4.20083 12.3344 4.18677 12.7422 4.18677 16C4.18677 19.2578 4.20083 19.6656 4.25708 20.9453C4.31333 22.2203 4.51958 23.0969 4.81489 23.8563C5.12427 24.6484 5.53208 25.3188 6.20239 25.9844C6.86802 26.65 7.53833 27.0625 8.32583 27.3672C9.08989 27.6625 9.96177 27.8687 11.2368 27.925C12.5165 27.9812 12.9243 27.9953 16.1821 27.9953C19.4399 27.9953 19.8477 27.9812 21.1274 27.925C22.4024 27.8687 23.279 27.6625 24.0383 27.3672C24.8258 27.0625 25.4961 26.65 26.1618 25.9844C26.8274 25.3188 27.2399 24.6484 27.5446 23.8609C27.8399 23.0969 28.0461 22.225 28.1024 20.95C28.1586 19.6703 28.1727 19.2625 28.1727 16.0047C28.1727 12.7469 28.1586 12.3391 28.1024 11.0594C28.0461 9.78438 27.8399 8.90781 27.5446 8.14844C27.2493 7.35156 26.8415 6.68125 26.1711 6.01562C25.5055 5.35 24.8352 4.9375 24.0477 4.63281C23.2836 4.3375 22.4118 4.13125 21.1368 4.075C19.8524 4.01406 19.4446 4 16.1868 4Z" fill="url(#paint0_linear_434_24)"/>
<path d="M16.1868 9.83594C12.7836 9.83594 10.0227 12.5969 10.0227 16C10.0227 19.4031 12.7836 22.1641 16.1868 22.1641C19.5899 22.1641 22.3508 19.4031 22.3508 16C22.3508 12.5969 19.5899 9.83594 16.1868 9.83594ZM16.1868 19.9984C13.979 19.9984 12.1883 18.2078 12.1883 16C12.1883 13.7922 13.979 12.0016 16.1868 12.0016C18.3946 12.0016 20.1852 13.7922 20.1852 16C20.1852 18.2078 18.3946 19.9984 16.1868 19.9984Z" fill="url(#paint1_linear_434_24)"/>
<path d="M24.0336 9.5922C24.0336 10.3891 23.3868 11.0313 22.5946 11.0313C21.7977 11.0313 21.1555 10.3844 21.1555 9.5922C21.1555 8.79533 21.8024 8.15314 22.5946 8.15314C23.3868 8.15314 24.0336 8.80002 24.0336 9.5922Z" fill="#FF00C9"/>
<defs>
<linearGradient id="paint0_linear_434_24" x1="11.6868" y1="4" x2="11.6868" y2="28" gradientUnits="userSpaceOnUse">
<stop stop-color="#7805FF"/>
<stop offset="0.333333" stop-color="#FF006A"/>
<stop offset="0.666667" stop-color="#FF1B02"/>
<stop offset="1" stop-color="#FFCD00"/>
</linearGradient>
<linearGradient id="paint1_linear_434_24" x1="19.0982" y1="4.31933" x2="16.1775" y2="27.995" gradientUnits="userSpaceOnUse">
<stop stop-color="#FF00BF"/>
<stop offset="1" stop-color="#FF5B01"/>
</linearGradient>
</defs>
</svg>
