<svg width="150" height="150" viewBox="0 0 150 150" fill="none" xmlns="http://www.w3.org/2000/svg">
<path d="M101.613 130.351C92.0013 130.387 82.6471 127.249 75 121.425C46.4253 143.427 3.75877 122.118 4.08104 86.0229C4.09592 75.4087 7.91483 65.1501 14.8465 57.1104C21.7769 49.0711 31.3602 43.7827 41.8579 42.2045L36.5765 36.9231C25.5524 25.7604 38.3527 13.8609 48.3847 22.7862C58.4634 13.9538 71.2169 25.7388 60.1928 36.9231L54.9343 42.2045C62.2195 43.2654 69.1204 46.1446 74.9991 50.5758C80.8837 46.1411 87.7925 43.2618 95.0856 42.2045L89.8043 36.9231C78.7802 25.7604 91.5804 13.8609 101.612 22.7862C111.691 13.9538 124.445 25.7388 113.421 36.9231L108.139 42.2045C161.852 51.7752 156.365 128.689 101.613 130.35L101.613 130.351ZM77.7671 119.189C104.197 138.653 142.756 118.819 142.458 86.025C142.596 51.9381 102.444 32.7984 76.0854 54.2437C67.9142 60.847 62.586 70.3295 61.1968 80.7413C59.8063 91.1543 62.4602 101.702 68.6124 110.217C70.1688 108.934 71.5901 107.497 72.8557 105.928C67.778 98.4935 65.7571 89.3886 67.2126 80.5046C68.6683 71.6194 73.4897 63.636 80.6742 58.2114C103.184 40.868 136.83 57.7044 136.555 86.1407C136.948 113.816 104.542 130.883 82.0131 115.015V115.014C80.689 116.495 79.2722 117.889 77.7697 119.189L77.7671 119.189ZM45.7104 45.3873C-6.5259 50.6915 -4.08253 125.116 48.3861 126.982C81.5736 127.166 101.085 88.6764 81.389 62.0367C79.8406 63.3288 78.4262 64.773 77.1685 66.3489C82.2371 73.7853 84.2501 82.8855 82.79 91.7651C81.3308 100.645 76.5093 108.621 69.3272 114.043C46.8647 131.27 13.1914 114.435 13.4698 86.0215C13.0772 58.4391 45.503 41.2588 68.0821 57.1479C69.3878 55.6144 70.7977 54.1737 72.3026 52.8346C64.5916 47.2898 55.1856 44.6142 45.711 45.2701L45.7104 45.3873ZM84.2241 112.175C104.542 126.244 133.51 110.746 133.162 86.0221C133.439 61.2765 104.471 45.7799 84.2241 59.8699C89.7539 67.4678 92.734 76.6242 92.734 86.0221C92.734 95.4211 89.7539 104.578 84.2241 112.175ZM48.4555 54.5191H48.4544C40.0957 54.5134 32.0769 57.83 26.1636 63.7386C20.2503 69.6472 16.9283 77.6637 16.9283 86.0223C16.5827 110.769 45.5487 126.244 65.775 112.176C60.2452 104.572 57.2675 95.4123 57.2675 86.0109C57.2675 76.6096 60.2452 67.4508 65.775 59.8474C60.639 56.3786 54.5816 54.5314 48.3859 54.542L48.4555 54.5191ZM75 69.2341C71.8345 74.2579 70.1557 80.0739 70.1557 86.0112C70.1557 91.9497 71.8346 97.7654 75 102.79C78.1643 97.7657 79.8431 91.9497 79.8431 86.0112C79.8431 80.0739 78.1642 74.2582 75 69.2341ZM48.3855 41.7202H50.4615L57.7491 34.4326C63.9301 28.4358 60.4247 21.0568 53.39 23.6625V23.6613C51.9778 24.3068 50.7029 25.2143 49.6306 26.337C49.3067 26.662 48.8673 26.844 48.4084 26.844C47.8362 26.8371 47.2994 26.5647 46.955 26.107C45.8792 25.0255 44.5918 24.1775 43.1728 23.6156C36.0466 21.3096 33.0481 28.7815 39.022 34.4783L46.3096 41.7659H48.3157L48.3855 41.7202ZM101.615 41.7202H103.691L110.979 34.4326C119.35 25.6002 109.572 18.958 102.837 26.2913C102.152 26.9413 101.077 26.9413 100.392 26.2913C99.3182 25.1664 98.033 24.2657 96.6094 23.6386C89.6904 21.0785 86.0693 28.4131 92.2503 34.4315L99.5379 41.7191C100.207 41.7203 100.923 41.7203 101.614 41.7203L101.615 41.7202Z" fill="black"/>
</svg>
