<svg width="304" height="234" viewBox="0 0 304 234" fill="none" xmlns="http://www.w3.org/2000/svg">
<g clip-path="url(#clip0_422_22)">
<path d="M172.42 27.2C172.88 21.74 171.55 16.97 168.41 12.9C165.27 8.83 161.04 5.66 155.73 3.4C150.41 1.13 144.93 0 139.3 0H217.14C207.96 1.45 200.5 4.04 194.78 7.76C189.06 11.48 184.74 15.26 181.84 19.09C178.93 22.93 177.13 25.72 176.44 27.46L128.15 171.21V171.38C128.09 171.55 128.03 171.73 127.98 171.9L126.85 175.04L123.54 184.98L122.41 188.38L122.32 188.64L119.97 195.79L118.92 198.75L117.7 202.5L117.35 203.55H109.16L108.81 202.77V202.68L107.24 198.84L38.97 25.89C37.63 23.39 35.37 20.33 32.17 16.69C28.97 13.06 24.73 9.66 19.44 6.49C14.15 3.33 7.67 1.16 0 0H77.84C72.55 0 68.28 1.38 65.03 4.14C61.77 6.9 59.61 10.3 58.54 14.34C57.46 18.38 57.48 22.46 58.58 26.59L120.21 182.8L123.17 174.08L123.61 172.6L126.14 165.1L172.42 27.2Z" fill="white"/>
<path d="M131.45 206.79C130.99 212.25 132.32 217.02 135.46 221.09C138.6 225.16 142.83 228.33 148.14 230.59C153.45 232.85 158.94 233.99 164.57 233.99H86.73C95.91 232.54 103.37 229.95 109.09 226.23C114.81 222.51 119.13 218.73 122.03 214.9C124.94 211.06 126.74 208.27 127.43 206.53L175.73 62.79V62.6199C175.79 62.4499 175.85 62.2699 175.9 62.0999L177.03 58.9599L180.34 49.02L181.47 45.6199L181.56 45.36L183.91 38.2099L184.96 35.25L186.18 31.5L186.53 30.45H194.72L195.07 31.2299V31.32L196.64 35.16L264.89 208.11C266.23 210.61 268.49 213.67 271.69 217.31C274.89 220.94 279.13 224.34 284.42 227.51C289.71 230.68 296.19 232.84 303.86 234H226.02C231.31 234 235.58 232.62 238.83 229.86C242.09 227.1 244.25 223.7 245.32 219.66C246.4 215.62 246.38 211.54 245.28 207.41L183.66 51.1899L180.7 59.91L180.26 61.3899L177.73 68.8899L131.44 206.79H131.45Z" fill="white"/>
<path d="M186.39 182.02C186.39 162.09 170.23 145.94 150.31 145.94C170.24 145.94 186.39 129.78 186.39 109.86C186.39 129.79 202.55 145.94 222.47 145.94C202.54 145.94 186.39 162.1 186.39 182.02Z" fill="white"/>
<path d="M102.17 65.5299C101.45 65.6999 100.73 65.8499 100.03 65.9999C99.95 66.0199 99.87 66.0399 99.81 66.0599C97 66.6399 94.19 67.2299 91.4 67.8299C88.61 68.4299 85.8 69.0299 82.99 69.6299C82.74 69.6699 82.54 69.5999 82.4 69.4299C82.26 69.2499 82.2 69.0599 82.23 68.8399C82.26 68.6199 82.41 68.4799 82.68 68.4199C82.76 68.3999 82.85 68.3799 82.93 68.3599C83.63 68.2199 84.34 68.0699 85.04 67.9299C90.25 66.8099 95.47 65.7099 100.68 64.6099C101.07 64.5299 101.46 64.4399 101.83 64.3599C102.1 64.3199 102.3 64.3899 102.44 64.5599C102.57 64.7399 102.63 64.9299 102.6 65.1299C102.57 65.3399 102.43 65.4699 102.18 65.5299H102.17ZM82.93 54.3899C82.68 54.3099 82.54 54.1599 82.5 53.9599C82.46 53.7499 82.51 53.5599 82.66 53.3899C82.8 53.2099 83.01 53.1499 83.28 53.1899C83.67 53.2899 84.07 53.3899 84.46 53.4699C84.85 53.5499 85.25 53.6499 85.64 53.7499C91.23 54.9899 96.81 56.2399 102.4 57.5099C102.65 57.5899 102.79 57.7399 102.82 57.9399C102.85 58.1499 102.8 58.3399 102.66 58.5099C102.53 58.6899 102.32 58.7499 102.05 58.7099C101.64 58.6099 101.22 58.5099 100.81 58.4299C100.44 58.3499 100.07 58.2599 99.69 58.1799C94.1 56.9199 88.52 55.6599 82.93 54.3899ZM101.71 61.1299C101.98 61.1499 102.15 61.2599 102.24 61.4599C102.32 61.6599 102.32 61.8499 102.24 62.0499C102.16 62.2499 101.98 62.3599 101.71 62.3799C101.42 62.3599 101.13 62.3499 100.84 62.3499C100.57 62.3299 100.29 62.3199 100 62.3199C95.92 62.1799 91.86 62.0299 87.8 61.8899C87.53 61.8699 87.35 61.7599 87.27 61.5599C87.19 61.3599 87.19 61.1699 87.27 60.9699C87.35 60.7699 87.53 60.6599 87.8 60.6399C88.09 60.6599 88.38 60.6699 88.67 60.6699C88.96 60.6899 89.24 60.6999 89.51 60.6999C89.94 60.7199 90.38 60.7399 90.81 60.7599C94.43 60.8799 98.06 61.0099 101.7 61.1299H101.71ZM105.09 71.1199C104.88 71.2899 104.69 71.4499 104.5 71.6199C104.07 71.9499 103.63 72.2899 103.2 72.6399C101.36 74.0899 99.52 75.5399 97.68 76.9899C95.03 79.0999 92.38 81.1999 89.73 83.2899C89.5 83.4299 89.28 83.4699 89.08 83.3799C88.87 83.2999 88.73 83.1599 88.66 82.9599C88.59 82.7599 88.66 82.5799 88.86 82.4199C89.17 82.1699 89.48 81.9099 89.79 81.6399C90.1 81.3899 90.42 81.1399 90.75 80.8999C95.24 77.3599 99.73 73.8099 104.22 70.2499C104.45 70.1099 104.66 70.0699 104.87 70.1599C105.08 70.2399 105.22 70.3799 105.29 70.5799C105.36 70.7799 105.29 70.9599 105.09 71.1199ZM89.35 40.5199C89.14 40.3499 89.08 40.1699 89.15 39.9799C89.22 39.7799 89.36 39.6399 89.57 39.5499C89.78 39.4599 89.99 39.4899 90.22 39.6599C90.51 39.8899 90.81 40.1299 91.12 40.3699C91.45 40.6399 91.77 40.9099 92.08 41.1799C94.05 42.7699 96.01 44.3699 97.98 45.9599C100.46 47.9699 102.96 49.9699 105.46 51.9799C105.65 52.1699 105.7 52.3599 105.63 52.5499C105.56 52.7499 105.42 52.8899 105.21 52.9699C105 53.0499 104.79 53.0099 104.56 52.8499L103.63 52.1099C103.32 51.8599 103.01 51.5999 102.7 51.3299C98.25 47.7299 93.8 44.1299 89.35 40.5299V40.5199ZM102.63 67.3699C102.88 67.2699 103.09 67.2899 103.27 67.4299C103.45 67.5699 103.54 67.7499 103.56 67.9599C103.58 68.1699 103.48 68.3299 103.25 68.4599C103.15 68.4999 103.04 68.5399 102.94 68.5799C102.53 68.7699 102.11 68.9499 101.7 69.1399C100.13 69.8599 98.55 70.5799 96.98 71.2799C94.85 72.2499 92.72 73.2199 90.59 74.1699C90.34 74.2699 90.12 74.2599 89.94 74.1199C89.75 73.9899 89.65 73.8099 89.63 73.6099C89.61 73.3999 89.72 73.2399 89.97 73.1099C90.49 72.8799 91 72.6399 91.52 72.3999C95.22 70.7199 98.93 69.0499 102.63 67.3699ZM103.62 54.4899C103.85 54.6099 103.95 54.7799 103.93 54.9899C103.91 55.1999 103.81 55.3699 103.62 55.4999C103.43 55.6299 103.22 55.6499 102.97 55.5499C102.68 55.4099 102.38 55.2499 102.07 55.0799C101.86 54.9799 101.66 54.8699 101.45 54.7699C97.83 52.9499 94.2 51.1299 90.56 49.3099C90.33 49.1899 90.23 49.0199 90.25 48.7999C90.27 48.5799 90.37 48.4099 90.54 48.2899C90.72 48.1699 90.93 48.1599 91.18 48.2599C91.35 48.3399 91.51 48.4299 91.68 48.5099C92.03 48.6799 92.37 48.8399 92.7 49.0099C94.52 49.9199 96.34 50.8299 98.16 51.7399C99.98 52.6699 101.8 53.5899 103.62 54.4999V54.4899ZM107.59 73.8299C107.4 74.0399 107.22 74.2499 107.03 74.4799C106.84 74.6899 106.66 74.8999 106.47 75.1299C104.81 77.0299 103.15 78.9499 101.47 80.8699C100.48 82.0299 99.47 83.1799 98.46 84.3199C98.27 84.5299 98.08 84.5899 97.89 84.5199C97.69 84.4499 97.55 84.2999 97.47 84.0899C97.39 83.8699 97.43 83.6599 97.59 83.4499C97.8 83.2199 97.99 82.9999 98.18 82.7699C98.37 82.5599 98.54 82.3699 98.71 82.1799C100.3 80.3599 101.89 78.5299 103.46 76.6899C104.54 75.4499 105.62 74.2099 106.72 72.9699C106.91 72.7799 107.1 72.7299 107.29 72.7999C107.49 72.8699 107.63 73.0099 107.71 73.2199C107.79 73.4299 107.75 73.6299 107.59 73.8399V73.8299ZM105.73 49.1199C104.51 47.5099 103.29 45.8799 102.07 44.2499C100.85 42.6399 99.62 41.0099 98.38 39.3799C98.24 39.1699 98.22 38.9799 98.35 38.8099C98.47 38.6299 98.65 38.5299 98.88 38.4999C99.11 38.4699 99.3 38.5599 99.47 38.7599C99.64 38.9899 99.81 39.2199 100 39.4399C100.17 39.6699 100.33 39.8999 100.5 40.1199C102.96 43.3699 105.41 46.6199 107.86 49.8699C108 50.0799 108.02 50.2699 107.91 50.4399C107.8 50.6199 107.63 50.7199 107.4 50.7499C107.17 50.7799 106.97 50.6899 106.78 50.4899C106.74 50.4299 106.71 50.3799 106.69 50.3299C106.38 49.9199 106.07 49.5099 105.76 49.1199H105.73ZM110.39 75.4999C110.08 76.0999 109.77 76.6999 109.46 77.2999C109.4 77.4199 109.34 77.5399 109.27 77.6399C108.42 79.3399 107.56 81.0199 106.69 82.6999C104.95 86.1099 103.21 89.5299 101.48 92.9399C101.34 93.1699 101.16 93.2699 100.95 93.2499C100.74 93.2299 100.57 93.1299 100.44 92.9599C100.31 92.7799 100.29 92.5699 100.39 92.3199C100.76 91.5999 101.13 90.8799 101.51 90.1799C104.1 85.0699 106.69 79.9599 109.3 74.8499C109.44 74.6199 109.62 74.5199 109.83 74.5399C110.04 74.5599 110.21 74.6599 110.34 74.8499C110.47 75.0399 110.49 75.2499 110.39 75.4999ZM108.84 46.4199C107.1 42.8799 105.35 39.3399 103.59 35.7999C102.8 34.2099 102.02 32.6099 101.23 31.0199C101.13 30.7699 101.14 30.5599 101.28 30.3799C101.41 30.1999 101.59 30.1099 101.79 30.0899C102 30.0699 102.17 30.1699 102.32 30.3999C102.67 31.1199 103.02 31.8499 103.38 32.5699C103.83 33.4599 104.28 34.3499 104.71 35.2399C106.8 39.4799 108.89 43.7199 110.98 47.9699C111.08 48.2199 111.07 48.4299 110.95 48.6099C110.83 48.7899 110.66 48.8799 110.44 48.8999C110.22 48.9199 110.05 48.8199 109.93 48.5899C109.74 48.1999 109.56 47.8099 109.37 47.4399C109.2 47.0899 109.03 46.7499 108.84 46.4199ZM127.65 61.8499C127.65 63.8799 127.15 65.7299 126.16 67.3899C125.17 69.0599 123.84 70.3899 122.17 71.3799C120.5 72.3699 118.66 72.8699 116.63 72.8699C114.6 72.8699 112.75 72.3699 111.09 71.3799C109.42 70.3899 108.09 69.0599 107.1 67.3899C106.11 65.7199 105.61 63.8799 105.61 61.8499C105.61 59.8199 106.11 57.9799 107.1 56.3099C108.09 54.6399 109.42 53.3099 111.09 52.3199C112.76 51.3299 114.6 50.8299 116.63 50.8299C118.66 50.8299 120.5 51.3299 122.17 52.3199C123.84 53.3099 125.17 54.6399 126.16 56.3099C127.15 57.9799 127.65 59.8199 127.65 61.8499ZM112.13 76.1599C112.21 75.8899 112.36 75.7399 112.58 75.7099C112.8 75.6799 112.99 75.7399 113.15 75.8799C113.32 76.0199 113.38 76.2199 113.34 76.4699C113.26 76.7799 113.17 77.0899 113.09 77.3999C113.03 77.6299 112.97 77.8699 112.9 78.1099C112.3 80.3899 111.71 82.6499 111.13 84.9099C110.7 86.5899 110.25 88.2599 109.8 89.9399C109.72 90.1899 109.57 90.3299 109.37 90.3599C109.16 90.3899 108.97 90.3399 108.8 90.1999C108.62 90.0699 108.57 89.8599 108.63 89.5899C108.77 89.0299 108.92 88.4799 109.06 87.9399C109.14 87.6099 109.23 87.2799 109.31 86.9499C110.26 83.3499 111.2 79.7499 112.13 76.1499V76.1599ZM112.6 45.6799C111.73 41.7099 110.86 37.7299 109.99 33.7599C109.95 33.4899 110.01 33.2899 110.18 33.1499C110.35 33.0199 110.54 32.9599 110.75 32.9899C110.96 33.0199 111.11 33.1599 111.17 33.4099L111.54 35.0899C112.41 39.0599 113.28 43.0399 114.15 47.0099C114.19 47.2799 114.12 47.4799 113.95 47.6199C113.77 47.7499 113.58 47.8099 113.38 47.7799C113.17 47.7499 113.03 47.6099 112.95 47.3599L112.76 46.4299C112.7 46.1799 112.65 45.9299 112.6 45.6899V45.6799ZM115.36 76.7499C115.38 76.4799 115.49 76.2999 115.69 76.2099C115.89 76.1199 116.09 76.1199 116.3 76.2099C116.51 76.2999 116.61 76.4799 116.61 76.7499C116.61 77.5399 116.6 78.3299 116.58 79.1399C116.52 84.8099 116.46 90.4699 116.39 96.1199V96.3399C116.37 96.6099 116.26 96.7899 116.05 96.8699C115.84 96.9499 115.64 96.9499 115.44 96.8699C115.24 96.7899 115.15 96.6099 115.15 96.3399V93.9199C115.23 88.6599 115.31 83.4199 115.37 78.1799V76.7499H115.36ZM116.01 46.8899V27.2599C116.01 26.9899 116.11 26.8199 116.32 26.7299C116.53 26.6499 116.73 26.6499 116.94 26.7299C117.15 26.8099 117.25 26.9899 117.25 27.2599V46.8799C117.25 47.1299 117.15 47.2999 116.94 47.3899C116.73 47.4799 116.53 47.4799 116.32 47.3899C116.11 47.2999 116.01 47.1299 116.01 46.8799V46.8899ZM120.54 77.9899C121.24 81.9999 121.96 86.0099 122.68 89.9999C122.7 90.2699 122.62 90.4799 122.45 90.6199C122.27 90.7599 122.08 90.8199 121.88 90.7799C121.67 90.7399 121.54 90.5899 121.48 90.3499C121.38 89.7899 121.28 89.2299 121.2 88.6699C120.95 87.2599 120.7 85.8599 120.46 84.4499C119.98 81.8399 119.52 79.2499 119.06 76.6599C119.02 76.3899 119.09 76.1799 119.28 76.0399C119.47 75.8999 119.66 75.8399 119.87 75.8799C120.08 75.9199 120.21 76.0699 120.27 76.3099C120.35 76.8699 120.45 77.4299 120.55 77.9899H120.54ZM120.45 47.4199C120.37 47.6699 120.22 47.8099 120 47.8399C119.78 47.8699 119.59 47.8199 119.43 47.6799C119.26 47.5499 119.2 47.3399 119.24 47.0699C119.3 46.7999 119.37 46.5299 119.46 46.2599C119.52 45.9699 119.58 45.6899 119.65 45.4199C119.92 44.3199 120.2 43.2299 120.49 42.1299C121.19 39.2699 121.9 36.4199 122.6 33.5599C122.68 33.3099 122.83 33.1699 123.05 33.1399C123.27 33.1099 123.46 33.1599 123.62 33.2999C123.79 33.4299 123.85 33.6399 123.81 33.9099C123.73 34.1799 123.65 34.4599 123.59 34.7499C123.53 35.0199 123.46 35.2899 123.37 35.5599C122.4 39.5099 121.42 43.4599 120.45 47.4199ZM124.24 77.3999C125.3 79.7599 126.35 82.1199 127.41 84.4799C128.69 87.3599 129.97 90.2299 131.23 93.1099C131.33 93.3599 131.32 93.5799 131.18 93.7599C131.05 93.9499 130.87 94.0499 130.67 94.0699C130.46 94.0899 130.3 93.9799 130.17 93.7299C129.96 93.2499 129.75 92.7799 129.52 92.2999C129.42 92.0299 129.3 91.7699 129.18 91.5199C128.85 90.7799 128.52 90.0299 128.19 89.2899C126.2 84.7999 124.21 80.3099 122.2 75.8199C122.12 75.5699 122.14 75.3599 122.28 75.1799C122.41 74.9999 122.59 74.9099 122.79 74.8899C123 74.8699 123.16 74.9699 123.29 75.1999C123.33 75.2999 123.37 75.4099 123.41 75.5099C123.7 76.1499 123.98 76.7799 124.25 77.3999H124.24ZM124.52 49.1899C124.38 49.4199 124.2 49.5199 123.99 49.4999C123.78 49.4799 123.61 49.3799 123.48 49.2099C123.35 49.0299 123.33 48.8199 123.43 48.5699C123.64 48.2199 123.83 47.8599 124.02 47.4799C124.21 47.1299 124.39 46.7799 124.58 46.4199C125.97 43.7499 127.36 41.0899 128.77 38.4399C130.03 36.0199 131.29 33.6099 132.56 31.2099C132.7 30.9799 132.88 30.8799 133.09 30.8999C133.3 30.9199 133.47 31.0199 133.6 31.1899C133.73 31.3699 133.74 31.5799 133.62 31.8299C133.29 32.4899 132.95 33.1499 132.6 33.8199C132.58 33.8599 132.55 33.9099 132.51 33.9799C132.3 34.3899 132.09 34.8199 131.86 35.2499C129.42 39.8899 126.98 44.5299 124.53 49.1899H124.52ZM126.97 75.0499C129.39 78.3199 131.8 81.5999 134.2 84.8899C134.34 85.0999 134.36 85.2899 134.25 85.4599C134.14 85.6399 133.97 85.7399 133.74 85.7699C133.51 85.7999 133.32 85.7099 133.15 85.5099C133.05 85.3699 132.94 85.2299 132.84 85.1099C132.59 84.7799 132.35 84.4499 132.13 84.1199C129.71 80.8499 127.3 77.5799 124.9 74.3099C124.76 74.0799 124.74 73.8899 124.87 73.7199C124.99 73.5499 125.16 73.4599 125.38 73.4299C125.6 73.3999 125.8 73.4899 125.99 73.6899C126.18 73.9399 126.36 74.1999 126.55 74.4699C126.69 74.6599 126.84 74.8499 126.98 75.0599L126.97 75.0499ZM126.26 50.2799C126.45 50.0699 126.63 49.8699 126.82 49.6599C127.01 49.4499 127.19 49.2399 127.38 49.0099C128.75 47.4999 130.1 45.9899 131.45 44.4799C132.8 42.9499 134.14 41.4299 135.49 39.9199C135.7 39.7299 135.9 39.6799 136.1 39.7499C136.3 39.8199 136.44 39.9599 136.52 40.1699C136.6 40.3799 136.56 40.5799 136.4 40.7899C136.01 41.2199 135.62 41.6499 135.25 42.0599C133.8 43.6899 132.34 45.3399 130.87 46.9999C129.63 48.3899 128.39 49.7799 127.15 51.1899C126.96 51.3799 126.77 51.4299 126.58 51.3599C126.38 51.2899 126.24 51.1499 126.16 50.9399C126.08 50.7299 126.12 50.5199 126.28 50.2899L126.26 50.2799ZM143.33 83.7999C143.52 83.9899 143.57 84.1799 143.5 84.3699C143.43 84.5699 143.29 84.7099 143.08 84.7899C142.87 84.8699 142.66 84.8299 142.43 84.6699C142.12 84.3999 141.8 84.1299 141.47 83.8599C141.18 83.6099 140.89 83.3699 140.6 83.1499C137.12 80.2699 133.66 77.3999 130.2 74.5199C129.25 73.7299 128.31 72.9499 127.38 72.1599C127.17 71.9699 127.11 71.7799 127.18 71.5899C127.25 71.3899 127.4 71.2499 127.61 71.1699C127.83 71.0899 128.04 71.1299 128.25 71.2899C128.6 71.5799 128.96 71.8799 129.34 72.1899C129.59 72.3999 129.85 72.6099 130.12 72.8399C132.19 74.5599 134.27 76.2699 136.36 77.9899C138.68 79.9399 141.01 81.8699 143.34 83.7899L143.33 83.7999ZM128.43 52.5099C128.76 52.2599 129.1 52.0199 129.45 51.7999C129.76 51.5499 130.07 51.3099 130.38 51.0899C132.35 49.6599 134.31 48.2499 136.28 46.8399C138.95 44.8999 141.62 42.9499 144.29 40.9999C144.52 40.8599 144.71 40.8399 144.88 40.9699C145.05 41.0899 145.14 41.2599 145.17 41.4799C145.2 41.6999 145.11 41.8999 144.91 42.0899C144.27 42.5499 143.62 43.0099 142.95 43.4899C140.74 45.1199 138.51 46.7499 136.28 48.3599C133.88 50.0999 131.47 51.8499 129.05 53.6099C128.84 53.7499 128.65 53.7699 128.48 53.6399C128.3 53.5199 128.2 53.3399 128.17 53.1099C128.14 52.8799 128.23 52.6899 128.43 52.5199V52.5099ZM129.61 69.2399C129.38 69.0999 129.28 68.9199 129.3 68.7099C129.32 68.4999 129.42 68.3299 129.59 68.1999C129.77 68.0699 129.98 68.0599 130.23 68.1799C130.73 68.4499 131.22 68.7199 131.72 68.9899C133.75 70.1299 135.78 71.2599 137.8 72.3699C139.33 73.2199 140.86 74.0699 142.39 74.9199C142.62 75.0599 142.72 75.2399 142.7 75.4499C142.68 75.6599 142.58 75.8299 142.39 75.9599C142.2 76.0899 142 76.0999 141.77 75.9799C141.34 75.7499 140.9 75.5099 140.47 75.2699C140.41 75.2299 140.35 75.1999 140.28 75.1799C138.5 74.1899 136.72 73.1899 134.94 72.1999C133.16 71.2299 131.38 70.2399 129.6 69.2499L129.61 69.2399ZM141.81 51.8899C139.93 52.6299 138.04 53.3899 136.16 54.1599C134.28 54.9299 132.39 55.6899 130.51 56.4599C130.24 56.5399 130.04 56.5099 129.9 56.3499C129.77 56.1899 129.71 55.9999 129.74 55.7799C129.77 55.5499 129.91 55.3899 130.16 55.2799C130.45 55.1599 130.74 55.0299 131.03 54.9099C131.26 54.8299 131.5 54.7299 131.74 54.6299C134.41 53.5499 137.08 52.4699 139.75 51.3699C140.85 50.9399 141.94 50.4899 143.04 50.0399C143.29 49.9599 143.48 49.9999 143.61 50.1599C143.74 50.3299 143.8 50.5199 143.77 50.7299C143.74 50.9399 143.61 51.1199 143.38 51.2399C143.11 51.3399 142.84 51.4599 142.57 51.5799C142.3 51.6799 142.04 51.7899 141.79 51.8899H141.81ZM150.19 70.1999C150.44 70.2799 150.58 70.4299 150.62 70.6499C150.66 70.8699 150.61 71.0599 150.46 71.2199C150.32 71.3899 150.12 71.4399 149.87 71.3799C149.08 71.1699 148.3 70.9699 147.51 70.7599C144.88 70.0599 142.24 69.3499 139.6 68.6499C136.7 67.8599 133.82 67.0899 130.94 66.3199C130.67 66.2399 130.52 66.0899 130.49 65.8699C130.46 65.6499 130.52 65.4599 130.66 65.2999C130.8 65.1299 131 65.0699 131.25 65.1099C132.04 65.3199 132.81 65.5199 133.58 65.7299C139.13 67.2199 144.66 68.7099 150.19 70.1999ZM150.41 54.9599C150.66 54.9199 150.85 54.9899 151 55.1599C151.14 55.3399 151.2 55.5299 151.17 55.7299C151.14 55.9399 150.99 56.0699 150.72 56.1299C150.33 56.2099 149.93 56.2999 149.54 56.3799C149.15 56.4599 148.75 56.5399 148.36 56.5999C147.55 56.7699 146.75 56.9299 145.94 57.0999C141.14 58.0499 136.33 59.0099 131.51 59.9899C131.24 60.0299 131.04 59.9599 130.9 59.7899C130.77 59.6099 130.71 59.4199 130.74 59.2199C130.77 59.0099 130.92 58.8699 131.19 58.7899C131.6 58.7099 132.02 58.6199 132.43 58.5399C132.8 58.4799 133.17 58.4099 133.55 58.3199C139.16 57.1999 144.78 56.0899 150.4 54.9699L150.41 54.9599ZM131.6 63.2799C131.33 63.2599 131.15 63.1499 131.07 62.9399C130.99 62.7299 130.99 62.5299 131.07 62.3299C131.15 62.1299 131.33 62.0399 131.6 62.0399H131.85C132.33 62.0599 132.81 62.0799 133.31 62.0999C135.34 62.1999 137.38 62.3099 139.42 62.4099C141.45 62.4899 143.48 62.5899 145.5 62.6899C145.77 62.7099 145.94 62.8199 146.03 63.0299C146.11 63.2399 146.11 63.4299 146.03 63.6199C145.95 63.8099 145.77 63.9099 145.5 63.9299C145.21 63.9099 144.92 63.8899 144.63 63.8699C144.36 63.8699 144.08 63.8599 143.79 63.8399C139.73 63.6499 135.67 63.4699 131.59 63.2799H131.6Z" fill="white"/>
</g>
<defs>
<clipPath id="clip0_422_22">
<rect width="303.87" height="233.99" fill="white"/>
</clipPath>
</defs>
</svg>
